# xmcd
#
# Track frame offsets:
#	300
#	19181
#	39037
#	61725
#	79097
#	100396
#	118342
#	138444
#	159373
#	178675
#	200008
#	213576
#	228637
#
# Disc length: 3449 seconds
#
# Revision: 0
# Processed by: cddbd v1.5.1PL2 Copyright (c) Steve Scherf et al.
# Submitted via: dBpowerAMP V4.0
#
DISCID=b30d750d
DTITLE=Wade Bowen - Lost Hotel
DYEAR=2006
DGENRE=Texas Country
TTITLE0=God Bless This Town
TTITLE1=One Step Closer
TTITLE2=Walkin' Along the Fenceline
TTITLE3=Resurrection
TTITLE4=Perfect Silence
TTITLE5=Lay It All On You
TTITLE6=Lost Hotel
TTITLE7=It's All Over Town
TTITLE8=Handle
TTITLE9=Broken Reflection (Troubadour's Prayer)
TTITLE10=Crazy Enough
TTITLE11=Lost Control of my Heart
TTITLE12=Mood Ring
EXTD=
EXTT0=
EXTT1=
EXTT2=
EXTT3=
EXTT4=
EXTT5=
EXTT6=
EXTT7=
EXTT8=
EXTT9=
EXTT10=
EXTT11=
EXTT12=
PLAYORDER=
